<svg width="31" height="31" viewBox="0 0 31 31" fill="none" xmlns="http://www.w3.org/2000/svg">
<path d="M14.8541 17.9329C17.5446 17.9329 19.9889 18.4431 21.7662 19.2728C23.5312 20.0968 24.6918 21.2646 24.692 22.6038V25.9837H5.01624V22.6038C5.01642 21.2646 6.17705 20.0968 7.94202 19.2728C9.71938 18.4431 12.1637 17.9329 14.8541 17.9329ZM14.8541 19.5247C12.5492 19.5247 10.4695 19.8849 8.97131 20.4613C8.22195 20.7495 7.62566 21.089 7.21936 21.4583C6.8132 21.8276 6.60815 22.2151 6.60803 22.6038V24.3919H23.1002V22.6038C23.1001 22.2151 22.8951 21.8276 22.4889 21.4583C22.0826 21.089 21.4863 20.7495 20.7369 20.4613C19.2388 19.8849 17.159 19.5247 14.8541 19.5247ZM14.8541 6.30794C16.0928 6.30794 17.2809 6.80026 18.1569 7.67611C19.0327 8.55198 19.5249 9.74018 19.525 10.9788C19.525 12.2175 19.0327 13.4056 18.1569 14.2816C17.2809 15.1575 16.0929 15.6497 14.8541 15.6497C13.6153 15.6497 12.4273 15.1575 11.5514 14.2816C10.6755 13.4056 10.1832 12.2175 10.1832 10.9788C10.1833 9.74018 10.6755 8.55198 11.5514 7.67611C12.4273 6.80026 13.6154 6.30794 14.8541 6.30794ZM14.8541 7.89974C14.0375 7.89974 13.2538 8.22463 12.6764 8.80208C12.0992 9.37943 11.7751 10.1625 11.775 10.9788C11.775 11.7954 12.099 12.5791 12.6764 13.1566C13.2538 13.734 14.0375 14.0579 14.8541 14.0579C15.6708 14.0579 16.4544 13.734 17.0319 13.1566C17.6092 12.5791 17.9332 11.7954 17.9332 10.9788C17.9331 10.1625 17.609 9.37943 17.0319 8.80208C16.4544 8.22463 15.6708 7.89974 14.8541 7.89974Z" fill="#1D1D1D" stroke="#1D1D1D" stroke-width="0.3"/>
</svg>
